<svg xmlns="http://www.w3.org/2000/svg" fill="none" viewBox="0 0 130 125"><path fill="#111110" d="m125.321 82.37-13.634-7.873a4.38 4.38 0 0 1-2.192-3.798V54.776a9.36 9.36 0 0 0-4.68-8.106l-13.788-7.96a4.39 4.39 0 0 1-2.192-3.798V19.167a9.36 9.36 0 0 0-4.68-8.107L65 0 45.845 11.06a9.36 9.36 0 0 0-4.68 8.107V34.91a4.39 4.39 0 0 1-2.192 3.797L25.185 46.67a9.36 9.36 0 0 0-4.68 8.106v15.923a4.39 4.39 0 0 1-2.192 3.797L4.68 82.368A9.36 9.36 0 0 0 0 90.475v22.121l19.155 11.06a9.36 9.36 0 0 0 9.36 0l13.633-7.872a4.39 4.39 0 0 1 4.385 0l13.788 7.962a9.36 9.36 0 0 0 9.359 0l13.788-7.962a4.39 4.39 0 0 1 4.385 0l13.633 7.872a9.36 9.36 0 0 0 9.359 0L130 112.596v-22.12a9.36 9.36 0 0 0-4.679-8.107zM68.17 9.153l12.78 7.38a3.08 3.08 0 0 1 1.538 2.665v15.708c0 3.835 2.046 7.38 5.367 9.297l13.757 7.944a3.08 3.08 0 0 1 1.538 2.664V70.7c0 3.836 2.046 7.38 5.367 9.298l13.602 7.854a3.08 3.08 0 0 1 1.539 2.665v14.758L68.17 73.234zM6.342 90.515c0-1.1.587-2.115 1.539-2.665l13.602-7.854A10.74 10.74 0 0 0 26.85 70.7V54.812c0-1.1.587-2.115 1.538-2.665l13.757-7.943a10.74 10.74 0 0 0 5.367-9.298V19.198c0-1.1.587-2.115 1.539-2.665l12.78-7.379v64.08l-55.49 32.039zm101.366 27.628c-.952.55-2.124.55-3.076 0l-13.602-7.854a10.74 10.74 0 0 0-10.735 0l-13.757 7.944a3.08 3.08 0 0 1-3.076 0l-13.757-7.944a10.74 10.74 0 0 0-10.735 0l-13.602 7.854c-.951.55-2.124.55-3.076 0l-12.78-7.379L65 78.724l55.488 32.04z"/></svg>